{
  "title": "Samba.2014.BRRip.x264.HORiZON-ArtSubs",
  "uid": 11702180,
  "size": 2134546649,
  "categoryP": "video",
  "categoryS": "movies",
  "magnet": "?xt=urn:btih:4624fe04e0af6e2a37bb92ce20792a37a3ec6b72&amp;dn=Samba.2014.BRRip.x264.HORiZON-ArtSubs&amp;tr=udp%3A%2F%2Ftracker.openbittorrent.com%3A80&amp;tr=udp%3A%2F%2Fopen.demonii.com%3A1337&amp;tr=udp%3A%2F%2Ftracker.coppersurfer.tk%3A6969&amp;tr=udp%3A%2F%2Fexodus.desync.com%3A6969",
  "seeders": 117,
  "leechers": 5,
  "uploader": "lletaif",
  "files": 1,
  "time": 1423961055,
  "description": "Media info:\n\nGeneral\nUnique ID                                : 214799551183445549222754074988213701926 (0xA198E38633C5E8F7ABBB2FB6E9540D26)\nComplete name                            : Samba.2014.BRRip.x264.HORiZON-ArtSubs.mkv\nFormat                                   : Matroska\nFormat version                           : Version 2\nFile size                                : 1.99 GiB\nDuration                                 : 1h 58mn\nOverall bit rate mode                    : Variable\nOverall bit rate                         : 2 405 Kbps\nMovie name                               : samba.2014.french.720p.bluray.x264-magical\nEncoded date                             : UTC 2015-02-14 22:41:38\nWriting application                      : DVDFab 9.1.4.0\nWriting library                          : libebml v0.7.8 + libmatroska v0.8.1\n\nVideo\nID                                       : 1\nFormat                                   : AVC\nFormat/Info                              : Advanced Video Codec\nFormat profile                           : &lt;a class=&quot;__cf_email__&quot; href=&quot;/cdn-cgi/l/email-protection&quot; data-cfemail=&quot;034b6a646b434f372d32&quot;&gt;[email&amp;#160;protected]&lt;/a&gt;&lt;script cf-hash='f9e31' type=&quot;text/javascript&quot;&gt;\n/* &lt;![CDATA[ */!function(){try{var t=&quot;currentScript&quot;in document?document.currentScript:function(){for(var t=document.getElementsByTagName(&quot;script&quot;),e=t.length;e--;)if(t[e].getAttribute(&quot;cf-hash&quot;))return t[e]}();if(t&amp;&amp;t.previousSibling){var e,r,n,i,c=t.previousSibling,a=c.getAttribute(&quot;data-cfemail&quot;);if(a){for(e=&quot;&quot;,r=parseInt(a.substr(0,2),16),n=2;a.length-n;n+=2)i=parseInt(a.substr(n,2),16)^r,e+=String.fromCharCode(i);e=document.createTextNode(e),c.parentNode.replaceChild(e,c)}}}catch(u){}}();/* ]]&gt; */&lt;/script&gt;\nFormat settings, CABAC                   : Yes\nFormat settings, ReFrames                : 2 frames\nCodec ID                                 : V_MPEG4/ISO/AVC\nDuration                                 : 1h 58mn\nBit rate mode                            : Variable\nBit rate                                 : 1 909 Kbps\nMaximum bit rate                         : 2 952 Kbps\nWidth                                    : 1 024 pixels\nHeight                                   : 552 pixels\nDisplay aspect ratio                     : 1.85:1\nFrame rate mode                          : Constant\nFrame rate                               : 24.000 fps\nColor space                              : YUV\nChroma subsampling                       : 4:2:0\nBit depth                                : 8 bits\nScan type                                : Progressive\nBits/(Pixel*Frame)                       : 0.141\nStream size                              : 1.58 GiB (79%)\nDefault                                  : Yes\nForced                                   : No\n\nAudio\nID                                       : 2\nFormat                                   : AC-3\nFormat/Info                              : Audio Coding 3\nMode extension                           : CM (complete main)\nFormat settings, Endianness              : Big\nCodec ID                                 : A_AC3\nDuration                                 : 1h 58mn\nBit rate mode                            : Constant\nBit rate                                 : 448 Kbps\nChannel(s)                               : 6 channels\nChannel positions                        : Front: L C R, Side: L R, LFE\nSampling rate                            : 48.0 KHz\nBit depth                                : 16 bits\nCompression mode                         : Lossy\nStream size                              : 379 MiB (19%)\nLanguage                                 : French\nDefault                                  : Yes\nForced                                   : No",
  "parsed": {
    "xt": "urn:btih:4624fe04e0af6e2a37bb92ce20792a37a3ec6b72",
    "dn": "Samba.2014.BRRip.x264.HORiZON-ArtSubs",
    "tr": [
      "udp://exodus.desync.com:6969",
      "udp://open.demonii.com:1337",
      "udp://tracker.coppersurfer.tk:6969",
      "udp://tracker.openbittorrent.com:80"
    ],
    "infoHash": "4624fe04e0af6e2a37bb92ce20792a37a3ec6b72",
    "infoHashBuffer": {
      "type": "Buffer",
      "data": [
        70,
        36,
        254,
        4,
        224,
        175,
        110,
        42,
        55,
        187,
        146,
        206,
        32,
        121,
        42,
        55,
        163,
        236,
        107,
        114
      ]
    },
    "name": "Samba.2014.BRRip.x264.HORiZON-ArtSubs",
    "announce": [
      "udp://exodus.desync.com:6969",
      "udp://open.demonii.com:1337",
      "udp://tracker.coppersurfer.tk:6969",
      "udp://tracker.openbittorrent.com:80"
    ],
    "urlList": []
  },
  "previous": 44,
  "peers": 62,
  "last_updated": "2016-12-26T22:57:55.529Z"
}